/* XPM */
static char *f77a417d0e044cefceb14600627388cfEaKxs7y1vuZMFHvx[] = {
/* columns rows colors chars-per-pixel */
"34 34 141 2 ",
"   c #573D26",
".  c #5C3E24",
"X  c #5D4027",
"o  c #5E452B",
"O  c #63452A",
"+  c #664929",
"@  c #6B4C2D",
"#  c #654B32",
"$  c #6D4E34",
"%  c #724D30",
"&  c #6D5032",
"*  c #745234",
"=  c #795536",
"-  c #755539",
";  c #7A563C",
":  c #77593D",
">  c #7A5B3E",
",  c #7E603E",
"<  c #7C5D42",
"1  c #7F6343",
"2  c #825A3E",
"3  c #81603F",
"4  c #825E44",
"5  c #8C5E46",
"6  c #836146",
"7  c #8B6445",
"8  c #8E6847",
"9  c #856449",
"0  c #8A654B",
"q  c #866A4B",
"w  c #8C6B4C",
"e  c #926446",
"r  c #9C6745",
"t  c #936A47",
"y  c #9E6947",
"u  c #93654B",
"i  c #986749",
"p  c #946D4C",
"a  c #9A6C4D",
"s  c #95714E",
"d  c #9B724E",
"f  c #846852",
"g  c #8E6C51",
"h  c #926E52",
"j  c #9A6F51",
"k  c #8E7053",
"l  c #957254",
"z  c #9B7554",
"x  c #977957",
"c  c #9D7955",
"v  c #957559",
"b  c #99765A",
"n  c #977A5C",
"m  c #9C7B5C",
"M  c #A06B49",
"N  c #A07B4F",
"B  c #A27553",
"V  c #A37A55",
"C  c #A97F57",
"Z  c #A37D5A",
"A  c #A97D5B",
"S  c #9D7C61",
"D  c #A17E61",
"F  c #9E805E",
"G  c #A68157",
"H  c #A5825D",
"J  c #AA835E",
"K  c #AA895F",
"L  c #9F8264",
"P  c #A48363",
"I  c #AA8563",
"U  c #A68A65",
"Y  c #AC8A65",
"T  c #A58569",
"R  c #A9876A",
"E  c #A98669",
"W  c #A78869",
"Q  c #A7886B",
"!  c #A6896B",
"~  c #A78A6A",
"^  c #A78869",
"/  c #AA8968",
"(  c #AA896A",
")  c #AC8969",
"_  c #AD8969",
"`  c #AC8B6A",
"'  c #A98C6A",
"]  c #AA8D6B",
"[  c #AD8C6B",
"{  c #AF8E6B",
"}  c #AB896D",
"|  c #AE8B6D",
" . c #AA8D6F",
".. c #AB8E6E",
"X. c #AE8D6C",
"o. c #AF8E6D",
"O. c #AF8E6F",
"+. c #AC8B6B",
"@. c #B08565",
"#. c #B08865",
"$. c #B28A67",
"%. c #B18A66",
"&. c #B18568",
"*. c #B18A69",
"=. c #B18D69",
"-. c #B08E6B",
";. c #B38F6B",
":. c #B08D6D",
">. c #B58E6D",
",. c #B28E6B",
"<. c #AE906C",
"1. c #AF936E",
"2. c #AE906E",
"3. c #B19167",
"4. c #B2926C",
"5. c #B7906F",
"6. c #B4926D",
"7. c #A98E70",
"8. c #AC8D70",
"9. c #AE8C70",
"0. c #AF8D71",
"q. c #AE8E71",
"w. c #B08E72",
"e. c #B38E70",
"r. c #A99071",
"t. c #AD9070",
"y. c #AE9272",
"u. c #AE927C",
"i. c #B49370",
"p. c #B59370",
"a. c #B79371",
"s. c #B49372",
"d. c #B19472",
"f. c #B49373",
"g. c #BB9773",
"h. c #B89473",
"j. c #B69876",
"k. c #BB9A75",
"l. c #B79478",
"z. c #B79A7A",
"x. c #BA997A",
/* pixels */
"9 q 7 7 t t t p t s s p t s p p p t 8 8 u z a j 8 8 7 w h g < > 4 g ",
"9 0 7 e i d B V B B d B B B B B B B V B B A V V A A B B Z b p 9 4 g ",
"5 5 5 5 i i e u i r r y y M y M a B V B B B B B B B i e p p 8 7 4 0 ",
"0 4 ; 4 5 5 u h e e i p a t p a a j j a j B j z h j j h p p 7 2 4 0 ",
"> ; % = * % = ; - - - : > : - < ; ; < ; 2 4 4 4 1 < < ; : ; ; $ < 4 ",
"k n n x 2 + + + # # o o # # o o O O O . O O O .   X O # $ < 9 4 4 4 ",
"P [ 6.h.P m E  .}  .T P T T L L P E / L m m x l S S T E P b h g h 0 ",
"m I #.$.A V _ | I e.>.#.P P I :.I >.>.J Z m c z T L [ [ J c a i g 0 ",
"A I Z [ U U ' U U  .i.q.E T L r.I | 9.D S x n U P f.<.2.U c B M h u ",
"_ Z :.X.F L z. .1.U [ X.0.Q S 7.X.x.0.v l m P 3.k.i.y.' F ! A V Z h ",
"_ _ X.y.l < L y.! y./ / q.f.8.n 8.9.P b m P 3.k.k.Y U r. .P D A D j ",
"l.q.} f.n 1 9 L t.f.X./ / X.q.T S b n P I [ 3.3._ H d.1.q n E m D j ",
"j.P m ! L S k < L t./ X.Y P l.9.b b D 9.=.6.6.K Y z.P 1 > L 2.F D b ",
"k.U Y / P / f.w < v / 4.I I E S S D _ >.4.3.=.3.y.T - < m T Y U D j ",
"k.J 4./ c m 4.>.f - n Y I J w b P K _ 4.3.Y Y =.n & 4 } m Z U K E m ",
"k.J Y 4.z H 5.>.u.< & x H 7 x | I P 3.%.K =.4.n o f D m x I G G P v ",
"=.U Y U m m 4.Y 4.F 1 1 v L 1.Y P Y 6.*._ i.> + w G V V h E D @.A S ",
"h.I U Y b m 4.h.g.x v n L  .f.h.h._ I *.E c , 6 H H B A b E @.B A b ",
"f.D H Y b b X.=.6.F Z m ! f.h.:.Y Y I Z I } H w x H A Z b E @.C A v ",
"l.b Z :.D h P H H Z P P i.z.:._ / _ / m Y 4.6.F w z V Z Z P J C A b ",
"l.b Z >.n h S x H Y I 4.>.I H E q.n Z b Z P =.4.P p s Z D E D A A b ",
">.B G *.x w Z H U Y I *.U I _ E w x | _ I _ Y =.[ c s z v D I A V x ",
"#.V A J z s K K 2.i.=.=.Y 4.m 9 O > m =._ J U 6.P J V a 0 E A V V b ",
"#.C V K c H ] K r.g.Y J G c = & S q ; Z $.J H U <.<.$.I 0 P Z B V l ",
"J A Z >.V Z H U Y J _ ' n @ @ ' J e.g $ S _ G N H =.Y $.J $.V V V l ",
"V V V $.Z H H J P Y [ l & , F I J I E > * x 6.V V H V $.I $.B s V l ",
"Z J J *.J P U Y Y P > + w H x U V P :.b > * z 6.Y J z I I #.z a B l ",
"I I I I H H J J F - $ l z.P s #.Y J I x n 2 @ z Y J V J J H d z d h ",
"x Z c c z c Z F 8 @ 9 ! m 8 d V V c F t z p = * Z J J H V B a p i h ",
"l m x c c c V c x c S l w x d s d F G c z V m z V Z H Z J #.#.I A S ",
"m P x m H G c d V z m b x x l 7 Z z z B V V d H V Z Z c V A Z V I S ",
"g h k l c c c d B z z l h n x w h x z B c d c s z c V V Z Z V z p n ",
"q g k S S S D D S m S h g S v 4 b S v b b b b z s s Z z z A B z l j ",
"v n n S S S D D D D E D S S S h h l h j z b Z B l z Z z p z l a x v "
};
