/* XPM */
static char *f69911c92c9d4cad81e6e19032f76fa62SXFk2PaXdRyKWR6[] = {
/* columns rows colors chars-per-pixel */
"34 34 144 2 ",
"   c #8D1200",
".  c #941304",
"X  c #951806",
"o  c #9C1C04",
"O  c #941608",
"+  c #991508",
"@  c #9A1C0D",
"#  c #A11D06",
"$  c #A31D0A",
"%  c #A31F10",
"&  c #A22205",
"*  c #A5240C",
"=  c #AA230E",
"-  c #A72B0F",
";  c #AA2A0F",
":  c #A62212",
">  c #AA2513",
",  c #A62A15",
"<  c #AC2B14",
"1  c #AD2C19",
"2  c #B22612",
"3  c #B32A15",
"4  c #BB2C15",
"5  c #B22A19",
"6  c #B92F1A",
"7  c #AE3218",
"8  c #B53215",
"9  c #BB3416",
"0  c #B4331C",
"q  c #BC341C",
"w  c #B6391C",
"e  c #BD3A1D",
"r  c #B32F20",
"t  c #B53523",
"y  c #BC3522",
"u  c #B53923",
"i  c #BD3B24",
"p  c #B53729",
"a  c #B73E29",
"s  c #BD3D29",
"d  c #C02E15",
"f  c #C13212",
"g  c #C43817",
"h  c #C1351B",
"j  c #C43B1D",
"k  c #C93D1C",
"l  c #C13621",
"z  c #C43D22",
"x  c #C93D22",
"c  c #C23E29",
"v  c #BF4425",
"b  c #BE422A",
"n  c #BE4731",
"m  c #C5421E",
"M  c #C44324",
"N  c #CA4425",
"B  c #C44925",
"V  c #CA4A26",
"C  c #C3432B",
"Z  c #CB452A",
"A  c #C74A2E",
"S  c #C74C2D",
"D  c #C64D2E",
"F  c #C64A2C",
"G  c #CA4B2B",
"H  c #C84E29",
"J  c #CB4F2B",
"K  c #C94E2F",
"L  c #CA4D2F",
"P  c #CB4B2B",
"I  c #D0462A",
"U  c #D04B2C",
"Y  c #D14D2D",
"T  c #C95326",
"R  c #C6552D",
"E  c #C6502B",
"W  c #CC502C",
"Q  c #CF532D",
"!  c #CF502F",
"~  c #CA542C",
"^  c #CD522D",
"/  c #CF582E",
"(  c #D1512E",
")  c #D4522E",
"_  c #D1552F",
"`  c #D6552E",
"'  c #D1532E",
"]  c #C74631",
"[  c #CA4330",
"{  c #C44830",
"}  c #C64831",
"|  c #C64A31",
" . c #CA4830",
".. c #CA4A31",
"X. c #CB4E30",
"o. c #C84C32",
"O. c #CA4D31",
"+. c #C84C34",
"@. c #CB4F35",
"#. c #CA4E36",
"$. c #CD4F36",
"%. c #CC4C31",
"&. c #D24E32",
"*. c #C75030",
"=. c #CB5233",
"-. c #CD5530",
";. c #CC5431",
":. c #CC5036",
">. c #CE5236",
",. c #CF5637",
"<. c #CD5233",
"1. c #CE5832",
"2. c #CE5936",
"3. c #CE5832",
"4. c #CE523A",
"5. c #CD5439",
"6. c #D25332",
"7. c #D05131",
"8. c #D05430",
"9. c #D45630",
"0. c #D35434",
"q. c #D25535",
"w. c #D45535",
"e. c #D25433",
"r. c #D85537",
"t. c #D55935",
"y. c #D75B37",
"u. c #D35A34",
"i. c #D15438",
"p. c #D05738",
"a. c #D65639",
"s. c #D3563A",
"d. c #D85738",
"f. c #D9573D",
"g. c #D35839",
"h. c #D25B39",
"j. c #D55A3B",
"k. c #D55B3B",
"l. c #DA5B3C",
"z. c #D9633B",
"x. c #D35443",
"c. c #D75E41",
"v. c #D95D43",
"b. c #D96342",
/* pixels */
"p t r y y l l y y y l y l y l c i y i t q s i i q q q i a u 1 , r a ",
"r 5 6 h 6 l x x x j z x x x x k l j z z x I N M Z N l l z i 0 0 5 t ",
"5 3 3 d d d d 4 f f f f f f d f g g k k k N k k x h h h h h 6 3 3 t ",
"y 5 = 2 2 2 y l 4 4 q q h h q h h g j g h x h h l l l h h h 3 2 5 t ",
"1 : $ = $ $ > % : : % % > : : > : > > : : 1 3 3 1 1 > : % 5 > % > 1 ",
"a b c s 5 # o + @ @ O O @ @ O O O O @ . . + . .   . X @ $ > 3 3 6 5 ",
"} i.a.d.G v $.4.#.4.+.{ +.+.} { o.:.%.C c C c i b b ] ..C z q q y 0 ",
"M ( ) ` V M e.q.W y.p.W W L W -.^ 8.t.V m N m g L L w.d.U x g 4 y t ",
"H B F 6._ L p.*.~ 3.g.5.=.D D g.R 2.<...C i M ^ X.j.;.-.H N z e y y ",
"<.W X.w.C H k.>.3.R -.p.i.=.M =.>.v.i.M y M F _ z.k.h.=.B X.Z N z s ",
"g.<.a.f.i , A c.=.h.2.W <.g.>.M >.q...i M F u.z.z.T ;.k...<.Z N M s ",
"k.<.=.f.M * 7 L g.k.q.=.<.q.j.%.C C M C ^ u./ u.T B g.5.t b S M N c ",
"b.=.M X.X.C u - A >.L p.<.B v.s.c c Z <.t.y./ R / y.F 0 , C i.B N s ",
"b.*.<.<.C e.w.w , b X.t.( L %.C N C 6.y.3./ / / u.H * 1 s X.6.^ F c ",
"z.E g.t.e B l.a.t * M H V L w C S V 6.u./ / <.<.i - 1 Z M N P L L C ",
"z.H ~ -.m M t.q.x., & v N 8 z %.U Q u.T T 8.9.M . 0 Z M j U B N H b ",
"i.L Q P M C <./ j.C 1 , u #.q.-.M 8.-.^ -.w.3 + 9 V N z z &.Z L Z b ",
"f.H Q &.C C q.y.l.M i C ..<.k.y.k./ ^ t.6.z , 8 V M c N z ..V N Z C ",
"v.F V 6.c C <.q.l.V M A X.t.k.p.L L ^ N G X.C q j N Z N z &.V Z V c ",
"v.v N &.c i A H B B B W l.l.q.6.6.^ ^ M P j.l...9 M P z C P V Y N C ",
"v.c N 9.c i C N H Q ^ t.t.H F <.s.M M M V H w.w.G 8 e M N Z P Z N s ",
"a.M V 6.i w M G ^ H W ( ^ L X.&.0 c &.L H G 8.( 8.v e e z Z Z N N C ",
"w.m N V j e V Q t.q.u./ 8.8.C 1 . > M 9.P V _ y.H 6.Z i q Z V N x c ",
"9.m m V N Z ( _ g.l.^ H W M > $ Z 6 * N ( P B P <.6.w.S 8 Z N k N C ",
"P V M ` M B V Q -.H X.a.b o & X.V w.0 o S e.I m N 6.6.^ G V Z N x p ",
"N Z N e.B V M H B 6.i.w # < C 6.V ^ &.5 = q r.V N Z N P Y 6.z g x c ",
"N P Z r.P L ( Q <.A ; o 0 G M P N G f.i = > z s.^ V M G Y ^ z e z i ",
"S Y Z L N N G V M * o i l.P j V P G P i c > $ z Y L N G G N j j z y ",
"M Z v z j M M M 7 o 0 S M 9 e j m m z q c y $ > M V G B M j e f g y ",
"i M i z N N M M N e M z e e e e N M V M x Z x z j N G N P Y &.Y Z ] ",
"M Z C c Z N z j M e c z i z e 6 z M z j j z k N j N N e M N I N P } ",
"e s q y N C z z m M j e y c z 9 z j j j m k j j j M V j N N x k q b ",
"7 u a C C C C C C c c z y c c 5 z c z j x M z j q j N j k I k h h s ",
"b b b ] ..C } A A ..<.} b { b i s s p s C C { C i b ..s u C i s C { "
};
