/* XPM */
static char *_573d87a8a3a4903f89a7349e60f092eJMawUhBzjhNpCqKa[] = {
/* columns rows colors chars-per-pixel */
"34 34 199 2 ",
"   c #75644A",
".  c #7A664E",
"X  c #7C6B4F",
"o  c #7B6550",
"O  c #7E6B54",
"+  c #7B7456",
"@  c #7B755C",
"#  c #7E7965",
"$  c #88654F",
"%  c #856C4E",
"&  c #84644D",
"*  c #836751",
"=  c #896752",
"-  c #836B55",
";  c #8B6C54",
":  c #836D58",
">  c #8C6E5B",
",  c #946A56",
"<  c #926D5B",
"1  c #986F59",
"2  c #857155",
"3  c #8A7154",
"4  c #85735B",
"5  c #8C735C",
"6  c #82795C",
"7  c #8B795E",
"8  c #917255",
"9  c #93735D",
"0  c #9B745C",
"q  c #937A5E",
"w  c #9B7A5E",
"e  c #A1775F",
"r  c #A07B5E",
"t  c #877463",
"y  c #8E7561",
"u  c #867D64",
"i  c #8D7A63",
"p  c #8D7E6A",
"a  c #937561",
"s  c #9A7563",
"d  c #937B64",
"f  c #9B7B64",
"g  c #937E69",
"h  c #9C7D69",
"j  c #947E71",
"k  c #A07464",
"l  c #A27C64",
"z  c #AE7E63",
"x  c #A0756C",
"c  c #A37D6A",
"v  c #AC7B6A",
"b  c #A57F72",
"n  c #8B8165",
"m  c #858168",
"M  c #8D836C",
"N  c #8E8C6E",
"B  c #938266",
"V  c #9B8366",
"C  c #94846A",
"Z  c #9B836C",
"A  c #94896C",
"S  c #9B896E",
"D  c #898772",
"F  c #8F8B70",
"G  c #948771",
"H  c #9F8573",
"J  c #948C72",
"K  c #9B8C73",
"L  c #958D79",
"P  c #9D8D79",
"I  c #979174",
"U  c #9C9276",
"Y  c #94917B",
"T  c #9C927B",
"R  c #9C987B",
"E  c #A58364",
"W  c #AB8463",
"Q  c #AD8B65",
"!  c #A3836B",
"~  c #AA836A",
"^  c #A58B6C",
"/  c #AC8B6E",
"(  c #B28364",
")  c #B3806F",
"_  c #B28A6D",
"`  c #A8906C",
"'  c #A18270",
"]  c #A98475",
"[  c #A28C74",
"{  c #AC8B73",
"}  c #A78E78",
"|  c #A98F78",
" . c #B08771",
".. c #BC8777",
"X. c #B18C71",
"o. c #A19277",
"O. c #A99477",
"+. c #A5957C",
"@. c #AA957C",
"#. c #A4997C",
"$. c #AA997E",
"%. c #B3977F",
"&. c #99A07F",
"*. c #9D9D83",
"=. c #A49583",
"-. c #A99783",
";. c #A49B84",
":. c #AC9C83",
">. c #A49689",
",. c #A69E8A",
"<. c #AB9D8A",
"1. c #B29680",
"2. c #B39D84",
"3. c #B19F8B",
"4. c #9EA281",
"5. c #A5A586",
"6. c #AAA285",
"7. c #A4A289",
"8. c #ACA48B",
"9. c #A7AA8B",
"0. c #ACA98C",
"q. c #B1A186",
"w. c #BBA483",
"e. c #B3A48B",
"r. c #BAA68E",
"t. c #B3AB8E",
"y. c #B8AA8F",
"u. c #ADA691",
"i. c #A9AA93",
"p. c #AEAD99",
"a. c #B2A592",
"s. c #B8A690",
"d. c #B4AC93",
"f. c #BBAC93",
"g. c #B3AC98",
"h. c #BBAD9A",
"j. c #B4B494",
"k. c #BBB293",
"l. c #B6B49A",
"z. c #BAB598",
"x. c #BCB39A",
"c. c #B7B899",
"v. c #BCBB9D",
"b. c #BFBE9F",
"n. c #BDBB9D",
"m. c #BCB2A1",
"M. c #B9BBA3",
"N. c #BFBFA5",
"B. c #BDBCA1",
"V. c #C1AD95",
"C. c #C0AF9F",
"Z. c #C0B097",
"A. c #C2B396",
"S. c #C0B49C",
"D. c #C4B59B",
"F. c #C8B398",
"G. c #C2BB9F",
"H. c #C5B89E",
"J. c #C1BC9F",
"K. c #C7B89B",
"L. c #CBBC9F",
"P. c #C5B5A5",
"I. c #C0BFA1",
"U. c #C5BFA7",
"Y. c #C3BEA3",
"T. c #C9BBA1",
"R. c #CBBDA3",
"E. c #CDBDA4",
"W. c #C2BDAA",
"Q. c #CABFA9",
"!. c #BBC19F",
"~. c #BEC4A8",
"^. c #BBC2A3",
"/. c #C2C1A3",
"(. c #C5C1A2",
"). c #C5C1A6",
"_. c #CAC3A7",
"`. c #CBC3A5",
"'. c #C9C9A5",
"]. c #C6C6AE",
"[. c #CBC3AB",
"{. c #C7C8A8",
"}. c #C9CAAA",
"|. c #D3C4A5",
" X c #D0C4AA",
".X c #D1C2AD",
"XX c #DBC7AE",
"oX c #D4CAAF",
"OX c #CBC6B3",
"+X c #CECDB8",
"@X c #D0CFB1",
"#X c #D5CCB2",
"$X c #DCCCB3",
"%X c #D9CEBC",
"&X c #D3D1B3",
"*X c #DCD2B7",
"=X c #D8D1B7",
"-X c #DAD9BB",
";X c #E7D7BE",
/* pixels */
"~ l f 0 0 w 8 8 8 3 7 2 2 3 8 8 d f < > a a a a a * B $XE.i h a b ] ",
"d 5 y d d q 3 5 3 % 3 X 2 2 7 2 5 6 5 Z i : 3 4 O 4 T _.z.K H C d G ",
"p.0.u.<.<.:.<.3.t.k.k.8.j.j.j.c.I.z.B. XR.H.T.A.e.0.z./.b.I.H.k.d.S.",
"Y Y J D C P P P A S S [ #.U I &.0.R J A K [ } P J C K A p B M Z P +.",
": - O . . O .   & $ $ , = * d r.x.K 4 5 5 > > 5 a a a 5 : - * : o : ",
"Z 9 5 > 2 2 4 i S Z B B B A 6.#X;X-.i d d d Z Z h d a 5 9 9 a 9 i Z ",
"e.-.#.$.#.#.$.y.(.(.!.{.{.@X&X&X*Xk.y.s.s.A.k.e.e.y.r.e.q.2.3.e.:.e.",
"M.M.W.B.d.;.K A [ q.y.d.:.e.-.} 5.0.t.6.;.6.0.c.v.d.t.0.8.t.8.t.0.j.",
"L u.).K 5 9 f B q 7 U k.d 5 d i q f s f h Z i d.L O > 5 , < 5 ; 5 B ",
"u d.oXo.f q w V f d e.|.Z Z h f 0 0 0 l l [ [ $X=.3 < 0 1 0 0 8 , 5 ",
"u T.#XS d E w f ! V k.L.d 9 s f 0 0 0 r 0 d B |.O.; 9 0 0 e 0 8 9 w ",
"m U.#XP 5 d q V h S x.`.K f s 9 q q 3 f ^ K A t.P 4 5 5 9 3 7 5 5 d ",
"p.OX%XP.a.-.=.-.2.e.n.&XT.D.r.2.8.8.=.e.h.x.l.^.x.,.>.-.+.+.<.<.-.a.",
"W.m.C.P.C.g.P.-.2.:.R 8.e.r.k.`.+XW.g.h.h.g.l.l.x.d.h.g.a.a.h.h.C.W.",
"i y > y > g h.i ; ; O : - 2 A k.W.G 4 i d d d d a i d a a 5 5 > a g ",
"f 1 , , > g L.d a > < < 8 9 U '.D.t < h k 1 s  .e k 0 1 0 s k 1 e f ",
"x , 9 > : B V.n < 9 q < 1 < } XXF.5 > q q d d 7 q 9 1 h s s q 3 9 f ",
"y y > O 4 +.S.L 3 5 5 7 5 5 S z.e.i 9 d 9 7 d 7 < 1 < 1 1 a a 9 4 i ",
"P G P ;.u.,.u.7.8.6.6.6.e.6.5.!.v.t.t.t.<.$.:.+.O.@.@.[ P H P H >.>.",
"<.>.8.<.8.;.T =.#.U J I U U I R 4.5.9.0.5.6.t.8.8.t.t.0.P.l.,.;.>.<.",
"H g D t t g i t a > O + 5 d y 7 @ m u G i i d 9 B B u F ;.T p j d H ",
"h > a > y y 4 y f a - > f h h f h Z h ' h h x x a ! Z f.h.H a k l c ",
"c s s a 5 a y y s d 2 4 d h h f c h d h a h s a s < d E.f.h s k f ~ ",
"] h a 9 d f 5 5 3 7 2 6 B h V C g M M G u j u t g > M -Xj.i s h Z Z ",
"e.e.<.2.e.+.#.$.q.6.w.e.6.6.y.f.x.h.f.r.8.:.4.R >.u.i.i.7.*.5.e.e.8.",
"-.$.+.U #.j.(.N A d A P o.K +.x.6.$.%.@.| o.J I g H o.+.#.+.+.$.-.3.",
"! f f 7 2 #.k.+ 4 : a > 5 2 i d.O.V ^ ! ! ! f ^ E E W Q E r w r f / ",
"..) _ c q O.K.n - < s < < > Z _.%./ ` { _ _ E / Q W ( ( z z E ~ W ( ",
"..v ~ f q $.K.6 2 4 a a 5 O M ].w.` / / X.X.~ / / ^ E l z l c ! f ~ ",
"1.O.[ S U t.c.N F J J K T Y *.~.t.$.$.$.1.1.1.1.U S C S [ } O.| P >.",
"h.f.f.0.b.!.!.j.B._.W.Y.W.W.].].Q.Q.`. XQ.Q..XQ.[._.v.{.).f.h.s.d.m.",
"M u M m u u @ + O 4 @ u u u p t # M D Y *.L *.L *.i.i.^.j.N A A n n ",
"f 9 9 9 a 9 9 = = - * * - O . * % - 3 % 3 3 3 ; 3 - @ [.A.8 q a 0 s ",
"{ Z Z f h s f < 9 a y 5 y t 4 9 a h d 5 y q a s f i L %XL.! l ! b ] "
};
